<?xml version="1.0" encoding="utf-8"?>
<!-- Generator: Adobe Illustrator 26.3.1, SVG Export Plug-In . SVG Version: 6.00 Build 0)  -->
<svg version="1.1" xmlns="http://www.w3.org/2000/svg" xmlns:xlink="http://www.w3.org/1999/xlink" x="0px" y="0px"
	 viewBox="0 0 1080 1080" style="enable-background:new 0 0 1080 1080;" xml:space="preserve">
<style type="text/css">
	.st0{fill:#FFFFFF;}
</style>
<g id="Capa_1">
	<g>
		<g>
			<path d="M204.85,135.01v670.3h670.3v-670.3H204.85z"/>
			<g>
				<path class="st0" d="M560.42,749.19l13.95-8.05v-80.55l-13.95,8.05V749.19z"/>
				<polygon class="st0" points="560.42,652.53 602.27,628.37 588.32,620.31 560.42,636.42 560.41,636.42 504.61,604.2 
					574.37,563.93 560.41,555.88 560.41,555.88 476.71,604.21 				"/>
				<path class="st0" d="M365.09,652.52l55.82-32.27l2.4-1.39c0.24-0.14,0.47-0.26,0.7-0.36h0c1.41-0.65,2.74-0.78,3.87-0.66
					c1.41,0.15,2.52,0.67,3.11,1.02c0.61,0.35,1.63,1.06,2.47,2.23l0,0c0.76,1.07,1.37,2.52,1.37,4.42l0,45.87
					c0,1.71-0.12,3.4-0.35,5.07c-0.02,0.15-0.04,0.31-0.06,0.46c-0.35,2.26-0.9,4.47-1.64,6.61c-0.37,1.06-0.78,2.1-1.24,3.11
					c-0.5,1.11-1.06,2.2-1.67,3.26c-0.61,1.06-1.27,2.09-1.99,3.08c-0.65,0.91-1.34,1.79-2.07,2.63v0c-1.48,1.71-3.12,3.29-4.9,4.72
					c-0.12,0.1-0.25,0.2-0.37,0.29c-1.33,1.04-2.74,1.99-4.22,2.84l-37.26,21.51v-64.42l-13.98,8.07v80.56l59.27-34.23
					c1.12-0.69,2.22-1.41,3.28-2.18c0.08-0.06,0.16-0.12,0.25-0.18c1.92-1.4,3.74-2.94,5.44-4.59c0.52-0.51,1.04-1.02,1.53-1.55
					c1.14-1.2,2.21-2.45,3.22-3.75c1.37-1.76,2.62-3.61,3.75-5.54c0.05-0.09,0.1-0.18,0.16-0.26c0.05-0.09,0.1-0.18,0.15-0.27
					c1.11-1.94,2.08-3.95,2.92-6.02c0.62-1.53,1.17-3.09,1.64-4.67c0.21-0.7,0.4-1.4,0.58-2.1c0.58-2.3,1-4.65,1.26-7.01
					c0.01-0.1,0.02-0.2,0.03-0.3c0.13-1.29,0.21-2.59,0.25-3.89c0.01-0.42,0.02-0.84,0.02-1.26c0,0-0.01-46.39-0.02-46.65
					c-0.05-1.41-0.23-2.8-0.54-4.14c-0.06-0.24-0.11-0.48-0.18-0.72c-0.55-2.06-1.39-4.01-2.5-5.79c-1.03-1.66-2.3-3.19-3.77-4.53
					c-0.3-0.28-0.62-0.55-0.94-0.81c-0.9-0.74-1.88-1.41-2.92-2c-1.01-0.59-2.06-1.08-3.12-1.49c-0.38-0.15-0.77-0.28-1.15-0.41h0
					c-1.9-0.61-3.86-0.95-5.82-1.02c-0.24-0.01-0.48-0.01-0.72-0.01c-0.02-1.05-0.11-2.08-0.27-3.09c-0.07-0.43-0.15-0.86-0.24-1.28
					c-0.42-1.93-1.1-3.77-2.01-5.48c-0.98-1.85-2.24-3.55-3.74-5.05c-0.18-0.18-0.36-0.36-0.55-0.53h0
					c-1.01-0.94-2.12-1.8-3.33-2.55c-0.23-0.14-0.46-0.28-0.7-0.42l-2.39-1.38l-0.01-0.01l-20.91-12.07c0,0-5.78-3.19-6.99-3.74
					c-0.09-0.04-0.18-0.08-0.28-0.12c-2.18-0.96-4.41-1.77-6.7-2.42c-0.7-0.2-1.4-0.38-2.11-0.55c-1.61-0.38-3.23-0.69-4.87-0.92
					c-2.2-0.31-4.43-0.47-6.67-0.48h0c-0.1,0-0.2,0-0.31,0c-0.1,0-0.2,0-0.3,0c-2.24,0.01-4.47,0.17-6.67,0.48
					c-1.64,0.23-3.26,0.53-4.87,0.92c-0.71,0.17-1.41,0.35-2.11,0.55c-2.28,0.65-4.52,1.46-6.7,2.42c-0.09,0.04-0.19,0.08-0.28,0.12
					c-1.22,0.55-2.42,1.14-3.6,1.79l-0.01,0.01c-0.33,0.18-0.66,0.36-0.98,0.55l-58.22,33.62L365.09,652.52z M346.58,582.67
					c1.48-0.85,3.01-1.6,4.57-2.23c0.14-0.06,0.29-0.12,0.43-0.17c2.13-0.83,4.32-1.46,6.54-1.88c1.1-0.21,2.21-0.37,3.32-0.48
					c1.22-0.12,2.43-0.18,3.65-0.18c1.22,0,2.44,0.06,3.66,0.18c1.11,0.11,2.22,0.27,3.32,0.48c2.22,0.42,4.41,1.05,6.54,1.88
					c0.15,0.06,0.29,0.12,0.43,0.17c1.56,0.63,3.09,1.38,4.57,2.23l2.39,1.38h0l0.01,0.01l6.96,4.02l0.02,0.01l6.96,4.02l0.02,0.01
					l6.96,4.02h0l0.01,0.01l2.39,1.38c1.68,0.97,2.63,2.24,3.17,3.45c0.58,1.3,0.68,2.51,0.68,3.21s-0.1,1.91-0.68,3.21
					c-0.46,1.03-1.22,2.11-2.47,3l-44.95,25.99l-55.76-32.19L346.58,582.67z"/>
				<polygon class="st0" points="713.95,652.58 713.93,652.59 713.95,652.6 				"/>
				<path class="st0" d="M699.99,652.6l51.19-29.54c0.21-0.12,0.42-0.25,0.63-0.38l0.02-0.01l0,0c1.22-0.76,2.35-1.63,3.37-2.58
					c0.18-0.17,0.37-0.35,0.54-0.53c1.5-1.5,2.76-3.2,3.74-5.05c0.91-1.71,1.59-3.55,2.01-5.48v0c0.09-0.42,0.17-0.84,0.24-1.27
					c0.18-1.13,0.27-2.29,0.27-3.46c0-1.17-0.09-2.33-0.27-3.46c-0.07-0.42-0.15-0.85-0.24-1.27c-0.42-1.93-1.1-3.77-2.01-5.48
					c-0.98-1.85-2.24-3.55-3.74-5.05c-0.18-0.18-0.36-0.35-0.54-0.52h0c-1.02-0.95-2.14-1.81-3.35-2.57
					c-0.22-0.14-0.44-0.27-0.67-0.4l-2.39-1.38l-20.92-12.08l-2.39-1.38c-0.32-0.18-0.64-0.36-0.96-0.54
					c-1.18-0.65-2.39-1.25-3.62-1.8c-0.09-0.04-0.19-0.09-0.28-0.12c-2.17-0.96-4.41-1.77-6.69-2.42h0c-0.7-0.2-1.4-0.38-2.11-0.55
					c-1.6-0.38-3.23-0.69-4.86-0.91c-2.2-0.3-4.43-0.47-6.66-0.48c0,0,0,0,0,0c-0.1,0-0.2,0-0.3,0h0c-0.1,0-0.2,0-0.3,0
					c-2.23,0.01-4.46,0.17-6.66,0.48c-1.64,0.23-3.26,0.53-4.86,0.91c-0.71,0.17-1.41,0.35-2.11,0.55
					c-2.28,0.65-4.51,1.45-6.69,2.42c-0.09,0.04-0.19,0.08-0.28,0.12c-1.23,0.55-2.44,1.15-3.62,1.8l-0.01,0.01
					c-0.32,0.17-0.63,0.35-0.95,0.53l-58.17,33.59L699.99,652.6z M681.48,582.82L681.48,582.82c1.48-0.85,3.01-1.6,4.57-2.23
					c0.13-0.05,0.27-0.11,0.4-0.16c0.01,0,0.02-0.01,0.03-0.01c0.74-0.29,1.5-0.56,2.25-0.8c0.58-0.18,1.16-0.35,1.74-0.51
					c0.39-0.1,0.78-0.2,1.17-0.29c0.46-0.1,0.91-0.2,1.37-0.29c1.1-0.21,2.21-0.37,3.32-0.48c1.21-0.12,2.43-0.18,3.65-0.18
					s2.44,0.06,3.65,0.18h0c1.11,0.11,2.22,0.27,3.32,0.48c0.46,0.09,0.92,0.18,1.37,0.29c0.39,0.09,0.78,0.19,1.17,0.29
					c0.58,0.16,1.16,0.32,1.74,0.51c0.76,0.24,1.51,0.51,2.25,0.8c0.14,0.06,0.29,0.11,0.43,0.17h0c1.56,0.63,3.08,1.38,4.56,2.23
					l25.7,14.84c0,0,0.01,0,0.01,0.01c1.67,0.96,2.62,2.23,3.16,3.44c0.58,1.29,0.68,2.52,0.68,3.2c0,0.69-0.1,1.91-0.68,3.21
					c-0.54,1.21-1.49,2.48-3.16,3.45l-44.2,25.52l-55.72-32.17L681.48,582.82z"/>
				<polygon class="st0" points="699.99,660.64 699.98,660.63 699.98,660.65 699.99,660.64 				"/>
				<polygon class="st0" points="769.67,660.63 769.67,660.65 769.68,660.64 				"/>
				<path class="st0" d="M755.74,700.38c-0.12,0.1-0.24,0.19-0.37,0.29c-1.33,1.04-2.73,1.99-4.21,2.84l-2.39,1.38l-0.01,0.01
					l-6.96,4.02l-0.01,0.01l0,0l-6.95,4.01l-0.01,0.01h0l-6.95,4.02l-0.01,0.01l-6.95,4.02l-0.01,0.01v0l-6.94,4v-64.36l-0.01,0.01
					h0l-6.97,4.02l-6.97,4.02l-0.01-0.01l0,0v80.51l0.01-0.01l0.02-0.01l6.95-4.02l0.01-0.01l6.95-4.02h0l0.01-0.01h0l6.95-4.01
					l0.01-0.01l6.95-4.02l0.02-0.01h0l6.95-4.02l0.01-0.01h0l6.95-4.01l0.02-0.01l6.95-4.02l0.01-0.01h0l6.95-4.02l0.01-0.01h0
					l2.39-1.38c0.32-0.19,0.64-0.38,0.96-0.57c0.01-0.01,0.02-0.01,0.04-0.02c0,0,0.01,0,0.01-0.01c0,0,0,0,0,0
					c1.13-0.69,2.23-1.42,3.31-2.19c0.08-0.06,0.16-0.12,0.25-0.18c1.92-1.4,3.74-2.93,5.44-4.59c0.52-0.51,1.03-1.02,1.53-1.55
					c1.14-1.2,2.21-2.45,3.22-3.75c1.37-1.76,2.62-3.6,3.75-5.53c0.05-0.09,0.1-0.17,0.16-0.26v0c0.05-0.09,0.1-0.18,0.15-0.26
					c1.11-1.94,2.08-3.95,2.92-6.01c0.62-1.53,1.17-3.09,1.64-4.67c0.21-0.7,0.4-1.4,0.58-2.1c0.58-2.3,1-4.64,1.25-7
					c0.01-0.1,0.02-0.2,0.03-0.3c0.13-1.32,0.22-2.64,0.25-3.97c0.01-0.39,0.01-0.78,0.01-1.17v-10.82l-0.01,0.01v0h0l-6.97,4.02
					l-6.97,4.02h0l-0.01-0.01v2.77c0,1.71-0.12,3.4-0.35,5.07v0c-0.02,0.15-0.04,0.31-0.06,0.46v0h0c-0.34,2.26-0.89,4.47-1.64,6.6
					c-0.37,1.06-0.78,2.1-1.24,3.11c-0.5,1.11-1.06,2.2-1.67,3.25c-0.61,1.06-1.27,2.08-1.98,3.08c-0.65,0.91-1.34,1.78-2.07,2.63
					C759.16,697.37,757.53,698.95,755.74,700.38z"/>
			</g>
		</g>
		<g>
			<path d="M864.68,910.09c1.23,0,2.4-0.22,3.5-0.6c2.97-1.05,5.33-3.4,6.38-6.38c0.38-1.1,0.6-2.27,0.6-3.5v-27.92
				c0-1.23-0.21-2.4-0.6-3.5c-1.05-2.97-3.4-5.33-6.38-6.38c-1.1-0.38-2.27-0.6-3.5-0.6h-73.32V945h73.32c1.23,0,2.4-0.22,3.5-0.6
				c2.97-1.05,5.33-3.4,6.38-6.38c0.39-1.1,0.6-2.27,0.6-3.49v-10.48h-6.99h-6.98v3.49c0,1.93-1.57,3.5-3.5,3.5h-3.49h-48.87V912.1
				l-3.48-2.01h3.48v0H864.68z M805.33,875.18h51.88c0.08,0,0.18,0,0.26,0.01c2,0.13,3.58,1.72,3.71,3.71
				c0.01,0.08,0.01,0.18,0.01,0.26v12.96c0,0.08,0,0.18-0.01,0.26c0,0,0,0.01,0,0.02c-0.14,1.98-1.72,3.56-3.7,3.7
				c-0.01,0-0.01,0-0.02,0c-0.08,0.01-0.18,0.01-0.26,0.01h-51.88V875.18z"/>
			<path d="M515.55,875.17h66.34v-13.97h-73.32c-1.22,0-2.4,0.21-3.49,0.6c-2.98,1.05-5.34,3.4-6.39,6.39
				c-0.34,0.93-0.53,1.92-0.59,2.95V945h83.78v-13.97h-66.35l-3.48,2.01v-54.38C512.06,876.74,513.63,875.17,515.55,875.17z"/>
			<path d="M481.96,868.2c-1.05-2.97-3.4-5.33-6.38-6.38c-1.1-0.39-2.27-0.6-3.5-0.6h-62.84c-1.22,0-2.39,0.21-3.49,0.6
				c-2.97,1.05-5.33,3.41-6.38,6.38c-0.39,1.1-0.6,2.27-0.6,3.49V945h13.97v-32.9l0,0v0l-3.48-2.01h0.01h3.47h0.01v0h55.86V945
				h13.96v-73.32C482.56,870.47,482.36,869.29,481.96,868.2z M468.61,896.13h-55.86v-17.45c0-1.92,1.56-3.49,3.49-3.49h48.87
				c1.88,0,3.4,1.47,3.49,3.31c0.01,0.06,0.01,0.12,0.01,0.18V896.13z"/>
			<polygon points="320.04,931.03 316.57,933.04 316.57,931.03 316.57,931.03 316.57,861.22 302.6,861.22 302.6,945 386.39,945 
				386.39,931.03 			"/>
			<polygon points="635.01,903.08 637.65,901.56 637.75,901.51 644.73,897.47 647.1,896.1 651.72,893.44 658.7,889.41 658.7,889.12 
				659.2,889.12 665.68,885.37 671.29,882.14 672.66,881.35 679.65,877.32 679.65,861.2 672.66,865.23 667.56,868.17 665.68,869.25 
				658.7,873.29 655.47,875.15 651.72,877.32 644.73,881.35 643.37,882.14 637.75,885.37 631.28,889.12 630.76,889.42 
				623.79,893.44 621.04,895.03 619.17,896.1 609.82,896.1 609.82,861.2 595.86,861.2 595.86,944.98 609.82,944.98 609.82,912.08 
				606.34,910.07 609.82,910.07 619.17,910.07 621.05,911.15 623.79,912.73 630.76,916.76 631.26,917.05 637.75,920.8 
				643.36,924.03 644.73,924.82 651.72,928.86 655.45,931.01 658.7,932.89 665.68,936.92 665.68,944.98 679.65,944.98 
				679.65,944.96 679.65,931.01 679.65,928.86 672.66,924.82 671.29,924.03 665.68,920.8 659.19,917.05 658.7,916.77 651.72,912.73 
				647.1,910.07 644.73,908.7 637.75,904.67 637.65,904.61 635,903.09 635,903.08 			"/>
			<path d="M288.03,903.11c-0.58-1.67-1.59-3.15-2.89-4.31c-1-0.91-2.19-1.61-3.49-2.07c-1.09-0.39-2.26-0.6-3.49-0.6h3.49
				c1.93,0,3.49-1.56,3.49-3.49v-20.94c0-1.23-0.21-2.4-0.6-3.5c-0.59-1.67-1.59-3.15-2.89-4.3c-1.85-1.66-4.3-2.67-6.98-2.67
				h-69.83V945h73.32c1.23,0,2.4-0.21,3.49-0.6c2.97-1.04,5.34-3.4,6.38-6.38c0.39-1.09,0.6-2.26,0.6-3.49V906.6
				C288.63,905.37,288.43,904.2,288.03,903.11z M218.81,875.18h48.87c1.93,0,3.49,1.56,3.49,3.49v13.97c0,1.93-1.56,3.49-3.49,3.49
				h-48.87V875.18z M274.68,927.55c0,1.93-1.57,3.5-3.5,3.5h-52.36V912.1l-3.48-2.01h3.48v0h52.36c1.93,0,3.5,1.57,3.5,3.49V927.55z
				"/>
			<polygon points="779.77,875.14 779.77,861.18 695.97,861.18 695.97,944.96 709.94,944.96 709.94,912.06 706.46,910.05 
				709.94,910.05 709.94,910.05 751.83,910.05 751.83,896.08 709.94,896.08 709.94,875.14 			"/>
		</g>
	</g>
</g>
<g id="Capa_2">
</g>
</svg>
